<svg width="453" height="456" viewBox="0 0 453 456" fill="none" xmlns="http://www.w3.org/2000/svg">
<g clip-path="url(#clip0_33_8838)">
<path d="M170.768 239.441H113.846V250.826H170.768V239.441Z" fill="#4BEA69"/>
<path d="M250.457 239.441H204.919V250.826H250.457V239.441Z" fill="#4BEA69"/>
<path d="M182.151 250.825H102.46V262.21H182.151V250.825Z" fill="#4BEA69"/>
<path d="M261.84 250.825H193.533V262.21H261.84V250.825Z" fill="#4BEA69"/>
<path d="M136.611 262.21H91.0732V273.594H136.611V262.21Z" fill="#4BEA69"/>
<path d="M159.382 262.21H136.613V273.594H159.382V262.21Z" fill="#068940"/>
<path d="M273.224 262.21H159.38V273.594H273.224V262.21Z" fill="#4BEA69"/>
<path d="M136.611 273.594H91.0732V284.979H136.611V273.594Z" fill="#4BEA69"/>
<path d="M159.382 273.594H136.613V284.979H159.382V273.594Z" fill="#068940"/>
<path d="M273.224 273.594H159.38V284.979H273.224V273.594Z" fill="#4BEA69"/>
<path d="M239.071 284.979H91.0732V296.364H239.071V284.979Z" fill="#4BEA69"/>
<path d="M261.841 284.979H239.072V296.364H261.841V284.979Z" fill="#068940"/>
<path d="M273.224 284.979H261.84V296.364H273.224V284.979Z" fill="#4BEA69"/>
<path d="M239.071 296.363H91.0732V307.747H239.071V296.363Z" fill="#4BEA69"/>
<path d="M261.841 296.363H239.072V307.747H261.841V296.363Z" fill="#068940"/>
<path d="M273.224 296.363H261.84V307.747H273.224V296.363Z" fill="#4BEA69"/>
<path d="M273.224 307.748H91.0732V319.132H273.224V307.748Z" fill="#4BEA69"/>
<path d="M273.224 319.132H91.0732V330.516H273.224V319.132Z" fill="#4BEA69"/>
<path d="M113.842 330.516H91.0732V341.901H113.842V330.516Z" fill="#068940"/>
<path d="M273.227 330.516H113.846V341.901H273.227V330.516Z" fill="#4BEA69"/>
<path d="M91.0768 341.901H79.6924V353.285H91.0768V341.901Z" fill="#4BEA69"/>
<path d="M113.842 341.901H91.0732V353.285H113.842V341.901Z" fill="#068940"/>
<path d="M284.612 341.901H113.846V353.285H284.612V341.901Z" fill="#4BEA69"/>
<path d="M284.612 353.286H79.6924V364.67H284.612V353.286Z" fill="#4BEA69"/>
<path d="M284.612 364.67H79.6924V376.054H284.612V364.67Z" fill="#4BEA69"/>
<path d="M284.612 376.054H79.6924V387.439H284.612V376.054Z" fill="#70E890"/>
<path d="M272.809 387.387H79.8457V399.031H272.809V387.387Z" fill="#70E890"/>
<path d="M284.609 387.438H261.84V398.823H284.609V387.438Z" fill="#70E890"/>
<path d="M273.224 398.823H91.0732V410.207H273.224V398.823Z" fill="#70E890"/>
<g clip-path="url(#clip1_33_8838)">
<path d="M179.656 267.616H116.444V280.924H179.656V267.616Z" fill="black"/>
<path d="M267.189 267.804H203.93V280.105H267.189V267.804Z" fill="black"/>
<path d="M162.085 279.885H115.3V291.581H162.085V279.885Z" fill="black"/>
<path d="M185.478 279.885H173.781V291.581H185.478V279.885Z" fill="black"/>
<path d="M244.345 280.104H196.9V306.462H244.345V280.104Z" fill="black"/>
<path d="M256.177 279.261H244.532V304.213H256.177V279.261Z" fill="white"/>
<path d="M267.352 279.885H255.655V291.581H267.352V279.885Z" fill="black"/>
<path d="M156.371 289.241H89.832V305.876H156.371V289.241Z" fill="black"/>
<path d="M173.782 291.582H162.086V303.278H173.782V291.582Z" fill="white"/>
<path d="M204.61 289.241H169.677V304.212H204.61V289.241Z" fill="black"/>
<path d="M267.352 291.582H255.655V303.278H267.352V291.582Z" fill="black"/>
<path d="M186.356 287.133H116.068V315.248H186.356V287.133Z" fill="black"/>
<path d="M267.356 303.277H197.178V314.973H267.356V303.277Z" fill="black"/>
<path d="M179.329 313.491H121.342V325.791H179.329V313.491Z" fill="black"/>
<path d="M263.674 313.491H203.93V325.791H263.674V313.491Z" fill="black"/>
<path d="M167.028 325.791H133.642V336.334H167.028V325.791Z" fill="black"/>
<path d="M160.001 336.334H142.429V346.878H160.001V336.334Z" fill="black"/>
<path d="M244.344 336.334H226.772V346.878H244.344V336.334Z" fill="black"/>
<path d="M258.402 325.791H212.715V336.334H258.402V325.791Z" fill="black"/>
<path d="M173.003 280.925H161.358V302.55H173.003V280.925Z" fill="white"/>
</g>
<path d="M215.764 374.844H155.224V384.7H215.764V374.844Z" fill="#0B5027"/>
<path d="M231.253 369.213H215.766V379.068H231.253V369.213Z" fill="#0B5027"/>
</g>
<g clip-path="url(#clip2_33_8838)">
<path d="M349.386 46.1228H188.208V57.6355H349.386V46.1228Z" fill="white"/>
<path d="M372.412 57.6354H165.183V69.1481H372.412V57.6354Z" fill="white"/>
<path d="M383.924 69.1482H153.669V80.6609H383.924V69.1482Z" fill="white"/>
<path d="M383.924 80.661H153.669V92.1737H383.924V80.661Z" fill="white"/>
<path d="M395.436 92.1737H142.156V103.686H395.436V92.1737Z" fill="white"/>
<path d="M395.436 103.687H142.156V115.199H395.436V103.687Z" fill="white"/>
<path d="M395.436 115.199H142.156V126.712H395.436V115.199Z" fill="white"/>
<path d="M395.436 126.712H142.156V138.224H395.436V126.712Z" fill="white"/>
<path d="M395.436 138.224H142.156V149.737H395.436V138.224Z" fill="white"/>
<path d="M395.436 149.737H142.156V161.25H395.436V149.737Z" fill="white"/>
<path d="M395.436 161.25H142.156V172.763H395.436V161.25Z" fill="white"/>
<path d="M383.924 172.763H153.669V184.276H383.924V172.763Z" fill="white"/>
<path d="M383.924 184.276H153.669V195.788H383.924V184.276Z" fill="white"/>
<path d="M372.412 195.788H165.183V207.301H372.412V195.788Z" fill="white"/>
<path d="M360.899 207.301H188.208V218.814H360.899V207.301Z" fill="white"/>
<path d="M349.385 218.814H314.847V230.326H349.385V218.814Z" fill="white"/>
<path d="M337.872 230.326H314.847V241.839H337.872V230.326Z" fill="white"/>
<path d="M326.359 241.839H303.334V253.352H326.359V241.839Z" fill="white"/>
<path d="M314.847 253.352H303.334V264.865H314.847V253.352Z" fill="white"/>
<path d="M221.649 98.4285H217.198V67.2049H239.487V71.6719H221.649V80.5908H237.261V85.0578H221.649V98.4285ZM256.227 98.4285H245.067V96.2026H242.841V93.9767H240.615V80.5908H242.841V78.3649H245.067V76.139H256.227V78.3649H258.453V80.5908H260.679V88.3967H245.067V91.7508H247.293V93.9767H253.986V91.7508H260.679V93.9767H258.453V96.2026H256.227V98.4285ZM245.067 85.0578H256.227V82.8167H253.986V80.5908H247.293V82.8167H245.067V85.0578ZM280.743 98.4285H269.583V96.2026H267.357V93.9767H265.131V80.5908H267.357V78.3649H269.583V76.139H280.743V78.3649H282.968V80.5908H285.194V88.3967H269.583V91.7508H271.808V93.9767H278.501V91.7508H285.194V93.9767H282.968V96.2026H280.743V98.4285ZM269.583 85.0578H280.743V82.8167H278.501V80.5908H271.808V82.8167H269.583V85.0578ZM294.098 98.4285H289.646V67.2049H294.098V98.4285ZM314.161 98.4285H303.002V96.2026H300.776V93.9767H298.55V91.7508H305.227V93.9767H313.033V89.5096H305.227V87.2837H300.776V85.0578H298.55V80.5908H300.776V78.3649H303.002V76.139H314.161V78.3649H316.387V80.5908H318.613V82.8167H311.92V80.5908H304.114V85.0578H311.92V87.2837H316.387V89.5096H318.613V93.9767H316.387V96.2026H314.161V98.4285ZM194.329 143.428H189.877V121.139H194.329V123.365H196.555V121.139H202.135V125.591H196.555V127.817H194.329V143.428ZM220.003 143.428H208.843V141.203H206.617V138.977H204.391V125.591H206.617V123.365H208.843V121.139H220.003V123.365H222.229V125.591H224.455V133.397H208.843V136.751H211.069V138.977H217.762V136.751H224.455V138.977H222.229V141.203H220.003V143.428ZM208.843 130.058H220.003V127.817H217.762V125.591H211.069V127.817H208.843V130.058ZM233.358 143.428H228.906V112.205H233.358V143.428ZM242.262 117.785H237.81V113.333H242.262V117.785ZM242.262 143.428H237.81V121.139H242.262V143.428ZM262.325 143.428H251.165V141.203H248.94V138.977H246.714V125.591H248.94V123.365H251.165V121.139H262.325V123.365H264.551V125.591H266.777V133.397H251.165V136.751H253.391V138.977H260.084V136.751H266.777V138.977H264.551V141.203H262.325V143.428ZM251.165 130.058H262.325V127.817H260.084V125.591H253.391V127.817H251.165V130.058ZM282.389 143.428H277.937V138.977H275.696V134.51H273.47V130.058H271.244V125.591H269.018V121.139H273.47V125.591H275.696V130.058H277.937V134.51H282.389V130.058H284.63V125.591H286.856V121.139H291.308V125.591H289.082V130.058H286.856V134.51H284.63V138.977H282.389V143.428ZM309.161 143.428H298.001V141.203H295.775V138.977H293.549V125.591H295.775V123.365H298.001V121.139H309.161V123.365H311.387V125.591H313.613V133.397H298.001V136.751H300.227V138.977H306.92V136.751H313.613V138.977H311.387V141.203H309.161V143.428ZM298.001 130.058H309.161V127.817H306.92V125.591H300.227V127.817H298.001V130.058ZM331.435 143.428H322.516V141.203H320.29V138.977H318.064V125.591H320.29V123.365H322.516V121.139H331.435V123.365H333.676V112.205H338.128V143.428H333.676V141.203H331.435V143.428ZM324.742 138.977H331.435V136.751H333.676V127.817H331.435V125.591H324.742V127.817H322.516V136.751H324.742V138.977ZM345.919 145.654H343.693V143.428H341.467V138.977H345.919V145.654ZM343.693 147.88H341.467V145.654H343.693V147.88ZM200.442 188.428H191.524V186.203H189.298V183.977H187.072V179.51H189.298V177.284H193.749V175.058H202.684V172.817H200.442V170.591H193.749V172.817H187.072V170.591H189.298V168.365H191.524V166.139H202.684V168.365H204.909V170.591H207.135V188.428H202.684V186.203H200.442V188.428ZM192.637 183.977H200.442V181.751H202.684V177.284H200.442V179.51H192.637V183.977ZM216.039 188.428H211.587V166.139H216.039V168.365H218.265V166.139H226.071V168.365H228.312V170.591H230.538V188.428H226.071V172.817H223.845V170.591H218.265V172.817H216.039V188.428ZM248.375 188.428H239.457V186.203H237.231V183.977H235.005V170.591H237.231V168.365H239.457V166.139H248.375V168.365H250.617V157.205H255.068V188.428H250.617V186.203H248.375V188.428ZM241.683 183.977H248.375V181.751H250.617V172.817H248.375V170.591H241.683V172.817H239.457V181.751H241.683V183.977ZM284.036 188.428H272.876V186.203H270.65V183.977H268.424V181.751H275.102V183.977H282.907V179.51H275.102V177.284H270.65V175.058H268.424V170.591H270.65V168.365H272.876V166.139H284.036V168.365H286.262V170.591H288.487V172.817H281.794V170.591H273.989V175.058H281.794V177.284H286.262V179.51H288.487V183.977H286.262V186.203H284.036V188.428ZM305.212 188.428H296.293V186.203H294.067V183.977H291.842V179.51H294.067V177.284H298.519V175.058H307.453V172.817H305.212V170.591H298.519V172.817H291.842V170.591H294.067V168.365H296.293V166.139H307.453V168.365H309.679V170.591H311.905V188.428H307.453V186.203H305.212V188.428ZM297.406 183.977H305.212V181.751H307.453V177.284H305.212V179.51H297.406V183.977ZM321.952 188.428H317.485V169.478H314.146V166.139H317.485V159.446H319.711V157.205H326.404V161.672H321.952V166.139H326.404V169.478H321.952V188.428ZM344.287 188.428H333.127V186.203H330.901V183.977H328.676V170.591H330.901V168.365H333.127V166.139H344.287V168.365H346.513V170.591H348.739V178.397H333.127V181.751H335.353V183.977H342.046V181.751H348.739V183.977H346.513V186.203H344.287V188.428ZM333.127 175.058H344.287V172.817H342.046V170.591H335.353V172.817H333.127V175.058Z" fill="black"/>
</g>
<defs>
<clipPath id="clip0_33_8838">
<rect width="364.301" height="284.454" fill="white" transform="translate(0 171.135)"/>
</clipPath>
<clipPath id="clip1_33_8838">
<rect width="374.282" height="374.282" fill="white" transform="translate(-1.66309 139.529)"/>
</clipPath>
<clipPath id="clip2_33_8838">
<rect width="368.407" height="368.407" fill="white" transform="translate(84.5928 0.0717773)"/>
</clipPath>
</defs>
</svg>
