<svg width="465" height="465" viewBox="0 0 465 465" fill="none" xmlns="http://www.w3.org/2000/svg">
<g clip-path="url(#clip0_33_8998)">
<path d="M170.768 248.369H113.846V259.754H170.768V248.369Z" fill="#4BEA69"/>
<path d="M250.457 248.369H204.919V259.754H250.457V248.369Z" fill="#4BEA69"/>
<path d="M182.151 259.753H102.46V271.138H182.151V259.753Z" fill="#4BEA69"/>
<path d="M261.84 259.753H193.533V271.138H261.84V259.753Z" fill="#4BEA69"/>
<path d="M136.611 271.138H91.0732V282.522H136.611V271.138Z" fill="#4BEA69"/>
<path d="M159.382 271.138H136.613V282.522H159.382V271.138Z" fill="#4BEA69"/>
<path d="M273.224 271.138H159.38V282.522H273.224V271.138Z" fill="#4BEA69"/>
<path d="M136.611 282.523H91.0732V293.907H136.611V282.523Z" fill="#4BEA69"/>
<path d="M159.382 282.523H136.613V293.907H159.382V282.523Z" fill="#4BEA69"/>
<path d="M273.224 282.523H159.38V293.907H273.224V282.523Z" fill="#4BEA69"/>
<path d="M239.071 293.907H91.0732V305.292H239.071V293.907Z" fill="#4BEA69"/>
<path d="M261.841 293.907H239.072V305.292H261.841V293.907Z" fill="#068940"/>
<path d="M273.224 293.907H261.84V305.292H273.224V293.907Z" fill="#4BEA69"/>
<path d="M239.071 305.291H91.0732V316.675H239.071V305.291Z" fill="#4BEA69"/>
<path d="M261.841 305.291H239.072V316.675H261.841V305.291Z" fill="#068940"/>
<path d="M273.224 305.291H261.84V316.675H273.224V305.291Z" fill="#4BEA69"/>
<path d="M273.224 316.676H91.0732V328.06H273.224V316.676Z" fill="#4BEA69"/>
<path d="M273.224 328.06H91.0732V339.444H273.224V328.06Z" fill="#4BEA69"/>
<path d="M113.842 339.444H91.0732V350.829H113.842V339.444Z" fill="#068940"/>
<path d="M273.227 339.444H113.846V350.829H273.227V339.444Z" fill="#4BEA69"/>
<path d="M91.0768 350.829H79.6924V362.214H91.0768V350.829Z" fill="#4BEA69"/>
<path d="M113.842 350.829H91.0732V362.214H113.842V350.829Z" fill="#068940"/>
<path d="M284.612 350.829H113.846V362.214H284.612V350.829Z" fill="#4BEA69"/>
<path d="M284.612 362.214H79.6924V373.598H284.612V362.214Z" fill="#4BEA69"/>
<path d="M284.612 373.598H79.6924V384.982H284.612V373.598Z" fill="#4BEA69"/>
<path d="M284.612 384.982H79.6924V396.367H284.612V384.982Z" fill="#70E890"/>
<path d="M272.809 396.315H79.8457V407.959H272.809V396.315Z" fill="#70E890"/>
<path d="M284.609 396.366H261.84V407.751H284.609V396.366Z" fill="#70E890"/>
<path d="M273.224 407.751H91.0732V419.135H273.224V407.751Z" fill="#70E890"/>
<g clip-path="url(#clip1_33_8998)">
<path d="M160.387 295H127V305.543H160.387V295Z" fill="black"/>
<path d="M260.387 294H227V304.543H260.387V294Z" fill="black"/>
<path d="M153.359 305.543H135.787V316.087H153.359V305.543Z" fill="black"/>
<path d="M253.359 304.543H235.787V315.087H253.359V304.543Z" fill="black"/>
</g>
<path d="M215.764 383.773H155.224V393.628H215.764V383.773Z" fill="#0B5027"/>
<path d="M231.253 378.141H215.766V387.996H231.253V378.141Z" fill="#0B5027"/>
</g>
<g clip-path="url(#clip2_33_8998)">
<path d="M360.793 46.051H199.615V57.5638H360.793V46.051Z" fill="white"/>
<path d="M383.819 57.5637H176.59V69.0765H383.819V57.5637Z" fill="white"/>
<path d="M395.331 69.0764H165.076V80.5891H395.331V69.0764Z" fill="white"/>
<path d="M395.331 80.5891H165.076V92.1018H395.331V80.5891Z" fill="white"/>
<path d="M406.844 92.1021H153.563V103.615H406.844V92.1021Z" fill="white"/>
<path d="M406.844 103.615H153.563V115.127H406.844V103.615Z" fill="white"/>
<path d="M406.844 115.127H153.563V126.64H406.844V115.127Z" fill="white"/>
<path d="M406.844 126.64H153.563V138.153H406.844V126.64Z" fill="white"/>
<path d="M406.844 138.153H153.563V149.666H406.844V138.153Z" fill="white"/>
<path d="M406.844 149.666H153.563V161.178H406.844V149.666Z" fill="white"/>
<path d="M406.844 161.178H153.563V172.691H406.844V161.178Z" fill="white"/>
<path d="M395.331 172.691H165.076V184.204H395.331V172.691Z" fill="white"/>
<path d="M395.331 184.204H165.076V195.717H395.331V184.204Z" fill="white"/>
<path d="M383.819 195.717H176.59V207.23H383.819V195.717Z" fill="white"/>
<path d="M372.306 207.229H199.615V218.742H372.306V207.229Z" fill="white"/>
<path d="M360.792 218.742H326.254V230.255H360.792V218.742Z" fill="white"/>
<path d="M349.279 230.255H326.254V241.767H349.279V230.255Z" fill="white"/>
<path d="M337.767 241.767H314.741V253.28H337.767V241.767Z" fill="white"/>
<path d="M326.254 253.28H314.741V264.793H326.254V253.28Z" fill="white"/>
<path d="M228.201 90H223.749V58.7764H241.587V61.0176H243.813V63.2435H246.039V74.3882H243.813V76.6294H241.587V78.8553H228.201V90ZM228.201 74.3882H239.361V72.1623H241.587V65.4694H239.361V63.2435H228.201V74.3882ZM253.875 90H249.423V67.7105H253.875V69.9364H256.101V67.7105H261.681V72.1623H256.101V74.3882H253.875V90ZM279.549 90H268.389V87.7741H266.163V85.5482H263.937V72.1623H266.163V69.9364H268.389V67.7105H279.549V69.9364H281.775V72.1623H284.001V79.9682H268.389V83.3223H270.615V85.5482H277.308V83.3223H284.001V85.5482H281.775V87.7741H279.549V90ZM268.389 76.6294H279.549V74.3882H277.308V72.1623H270.615V74.3882H268.389V76.6294ZM298.5 90H291.807V87.7741H289.581V71.0494H286.242V67.7105H289.581V61.0176H294.048V67.7105H298.5V71.0494H294.048V85.5482H298.5V90ZM313.014 90H306.321V87.7741H304.095V71.0494H300.756V67.7105H304.095V61.0176H308.562V67.7105H313.014V71.0494H308.562V85.5482H313.014V90ZM321.948 98.9188H315.27V94.4518H321.948V90H324.189V85.5482H321.948V81.0812H319.722V76.6294H317.496V72.1623H315.27V67.7105H319.722V72.1623H321.948V76.6294H324.189V81.0812H328.641V76.6294H330.882V72.1623H333.108V67.7105H337.56V72.1623H335.334V76.6294H333.108V81.0812H330.882V85.5482H328.641V90H326.415V94.4518H324.189V96.6777H321.948V98.9188ZM202.054 135H193.135V132.774H190.909V130.548H188.684V117.162H190.909V114.936H193.135V112.711H202.054V114.936H204.295V103.776H208.747V135H204.295V132.774H202.054V135ZM195.361 130.548H202.054V128.322H204.295V119.388H202.054V117.162H195.361V119.388H193.135V128.322H195.361V130.548ZM228.811 135H217.651V132.774H215.425V130.548H213.199V117.162H215.425V114.936H217.651V112.711H228.811V114.936H231.037V117.162H233.262V124.968H217.651V128.322H219.877V130.548H226.57V128.322H233.262V130.548H231.037V132.774H228.811V135ZM217.651 121.629H228.811V119.388H226.57V117.162H219.877V119.388H217.651V121.629ZM242.166 135H237.714V112.711H242.166V114.936H244.392V112.711H251.085V114.936H255.552V112.711H264.471V114.936H266.697V117.162H268.938V135H264.471V119.388H262.245V117.162H257.778V119.388H255.552V135H251.085V119.388H248.859V117.162H244.392V119.388H242.166V135ZM285.647 135H277.841V132.774H275.616V130.548H273.39V112.711H277.841V128.322H280.067V130.548H285.647V128.322H287.873V112.711H292.34V135H287.873V132.774H285.647V135ZM301.259 135H296.807V112.711H301.259V114.936H303.485V112.711H309.065V117.162H303.485V119.388H301.259V135ZM326.933 135H315.773V132.774H313.547V130.548H311.321V117.162H313.547V114.936H315.773V112.711H326.933V114.936H329.159V117.162H331.385V124.968H315.773V128.322H317.999V130.548H324.692V128.322H331.385V130.548H329.159V132.774H326.933V135ZM315.773 121.629H326.933V119.388H324.692V117.162H317.999V119.388H315.773V121.629ZM345.012 121.699V114.705H371.24V121.699H345.012ZM187.601 180H183.134V161.049H179.795V157.711H183.134V151.018H185.36V148.776H192.053V153.243H187.601V157.711H192.053V161.049H187.601V180ZM209.936 180H198.776V177.774H196.55V175.548H194.324V162.162H196.55V159.936H198.776V157.711H209.936V159.936H212.162V162.162H214.388V169.968H198.776V173.322H201.002V175.548H207.695V173.322H214.388V175.548H212.162V177.774H209.936V180ZM198.776 166.629H209.936V164.388H207.695V162.162H201.002V164.388H198.776V166.629ZM234.452 180H223.292V177.774H221.066V175.548H218.84V162.162H221.066V159.936H223.292V157.711H234.452V159.936H236.678V162.162H238.903V169.968H223.292V173.322H225.518V175.548H232.211V173.322H238.903V175.548H236.678V177.774H234.452V180ZM223.292 166.629H234.452V164.388H232.211V162.162H225.518V164.388H223.292V166.629ZM247.807 180H243.355V148.776H247.807V180ZM267.871 180H256.711V177.774H254.485V175.548H252.259V173.322H258.937V175.548H266.742V171.081H258.937V168.855H254.485V166.629H252.259V162.162H254.485V159.936H256.711V157.711H267.871V159.936H270.097V162.162H272.322V164.388H265.63V162.162H257.824V166.629H265.63V168.855H270.097V171.081H272.322V175.548H270.097V177.774H267.871V180ZM301.29 188.919H290.13V186.678H287.904V184.452H285.678V182.226H292.356V184.452H299.048V182.226H301.29V177.774H299.048V180H290.13V177.774H287.904V175.548H285.678V162.162H287.904V159.936H290.13V157.711H299.048V159.936H301.29V157.711H305.741V184.452H303.516V186.678H301.29V188.919ZM292.356 175.548H299.048V173.322H301.29V164.388H299.048V162.162H292.356V164.388H290.13V173.322H292.356V175.548ZM325.805 180H314.645V177.774H312.419V175.548H310.193V162.162H312.419V159.936H314.645V157.711H325.805V159.936H328.031V162.162H330.257V175.548H328.031V177.774H325.805V180ZM316.871 175.548H323.564V173.322H325.805V164.388H323.564V162.162H316.871V164.388H314.645V173.322H316.871V175.548ZM350.32 180H339.16V177.774H336.935V175.548H334.709V162.162H336.935V159.936H339.16V157.711H350.32V159.936H352.546V162.162H354.772V175.548H352.546V177.774H350.32V180ZM341.386 175.548H348.079V173.322H350.32V164.388H348.079V162.162H341.386V164.388H339.16V173.322H341.386V175.548ZM372.595 180H363.676V177.774H361.45V175.548H359.224V162.162H361.45V159.936H363.676V157.711H372.595V159.936H374.836V148.776H379.288V180H374.836V177.774H372.595V180ZM365.902 175.548H372.595V173.322H374.836V164.388H372.595V162.162H365.902V164.388H363.676V173.322H365.902V175.548Z" fill="black"/>
</g>
<defs>
<clipPath id="clip0_33_8998">
<rect width="364.301" height="284.454" fill="white" transform="translate(0 180.063)"/>
</clipPath>
<clipPath id="clip1_33_8998">
<rect width="374.282" height="374.282" fill="white" transform="translate(-1.66309 148.457)"/>
</clipPath>
<clipPath id="clip2_33_8998">
<rect width="368.407" height="368.407" fill="white" transform="translate(96)"/>
</clipPath>
</defs>
</svg>
