<svg width="189" height="185" viewBox="0 0 189 185" fill="none" xmlns="http://www.w3.org/2000/svg">
<g clip-path="url(#clip0_7_539)">
<path d="M69.6163 96.0826H46.4109V100.724H69.6163V96.0826Z" fill="#4BEA69"/>
<path d="M102.103 96.0825H83.5391V100.724H102.103V96.0825Z" fill="#4BEA69"/>
<path d="M74.2573 100.724H41.7698V105.365H74.2573V100.724Z" fill="#4BEA69"/>
<path d="M106.745 100.724H78.8984V105.365H106.745V100.724Z" fill="#4BEA69"/>
<path d="M55.6932 105.365H37.1289V110.006H55.6932V105.365Z" fill="#4BEA69"/>
<path d="M64.9755 105.365H55.6934V110.006H64.9755V105.365Z" fill="#068940"/>
<path d="M111.386 105.365H64.9756V110.006H111.386V105.365Z" fill="#4BEA69"/>
<path d="M55.6932 110.006H37.1289V114.647H55.6932V110.006Z" fill="#4BEA69"/>
<path d="M64.9755 110.006H55.6934V114.647H64.9755V110.006Z" fill="#068940"/>
<path d="M111.386 110.006H64.9756V114.647H111.386V110.006Z" fill="#4BEA69"/>
<path d="M97.4629 114.647H37.1289V119.288H97.4629V114.647Z" fill="#4BEA69"/>
<path d="M106.745 114.647H97.4631V119.288H106.745V114.647Z" fill="#068940"/>
<path d="M111.386 114.647H106.745V119.288H111.386V114.647Z" fill="#4BEA69"/>
<path d="M97.4629 119.288H37.1289V123.929H97.4629V119.288Z" fill="#4BEA69"/>
<path d="M106.745 119.288H97.4631V123.929H106.745V119.288Z" fill="#068940"/>
<path d="M111.386 119.288H106.745V123.929H111.386V119.288Z" fill="#4BEA69"/>
<path d="M111.386 123.929H37.1289V128.57H111.386V123.929Z" fill="#4BEA69"/>
<path d="M111.386 128.57H37.1289V133.211H111.386V128.57Z" fill="#4BEA69"/>
<path d="M46.4111 133.211H37.1289V137.853H46.4111V133.211Z" fill="#068940"/>
<path d="M111.386 133.211H46.4109V137.852H111.386V133.211Z" fill="#4BEA69"/>
<path d="M37.1294 137.852H32.4883V142.493H37.1294V137.852Z" fill="#4BEA69"/>
<path d="M46.4111 137.853H37.1289V142.494H46.4111V137.853Z" fill="#068940"/>
<path d="M116.027 137.852H46.4109V142.493H116.027V137.852Z" fill="#4BEA69"/>
<path d="M116.028 142.494H32.4883V147.135H116.028V142.494Z" fill="#4BEA69"/>
<path d="M116.028 147.134H32.4883V151.776H116.028V147.134Z" fill="#4BEA69"/>
<path d="M116.028 151.776H32.4883V156.417H116.028V151.776Z" fill="#70E890"/>
<path d="M111.217 156.396H32.5518V161.143H111.217V156.396Z" fill="#70E890"/>
<path d="M116.027 156.417H106.745V161.058H116.027V156.417Z" fill="#70E890"/>
<path d="M111.386 161.058H37.1289V165.699H111.386V161.058Z" fill="#70E890"/>
<path d="M89.2476 149.753H61.5469V154.262H89.2476V149.753Z" fill="#0B5027"/>
<path d="M91 121H83V131H91V121Z" fill="black"/>
<path d="M120.418 121.755H111.498V126.215H120.418V121.755Z" fill="black"/>
<path d="M63 121H54V131H63V121Z" fill="black"/>
</g>
<g clip-path="url(#clip1_7_539)">
<path d="M148.961 17.8395H86.5227V22.2994H148.961V17.8395Z" fill="white"/>
<path d="M157.881 22.2993H77.6025V26.7592H157.881V22.2993Z" fill="white"/>
<path d="M162.34 26.7593H73.1423V31.2192H162.34V26.7593Z" fill="white"/>
<path d="M162.34 31.2193H73.1423V35.6792H162.34V31.2193Z" fill="white"/>
<path d="M166.8 35.6792H68.6826V40.1391H166.8V35.6792Z" fill="white"/>
<path d="M166.8 40.1392H68.6826V44.5991H166.8V40.1392Z" fill="white"/>
<path d="M166.8 44.599H68.6826V49.0589H166.8V44.599Z" fill="white"/>
<path d="M166.8 49.0587H68.6826V53.5186H166.8V49.0587Z" fill="white"/>
<path d="M166.8 53.5187H68.6826V57.9786H166.8V53.5187Z" fill="white"/>
<path d="M166.8 57.9787H68.6826V62.4386H166.8V57.9787Z" fill="white"/>
<path d="M166.8 62.4385H68.6826V66.8984H166.8V62.4385Z" fill="white"/>
<path d="M162.34 66.8985H73.1423V71.3584H162.34V66.8985Z" fill="white"/>
<path d="M162.34 71.3585H73.1423V75.8184H162.34V71.3585Z" fill="white"/>
<path d="M157.881 75.8184H77.6025V80.2783H157.881V75.8184Z" fill="white"/>
<path d="M153.421 80.278H86.5227V84.7379H153.421V80.278Z" fill="white"/>
<path d="M148.961 84.738H135.581V89.1979H148.961V84.738Z" fill="white"/>
<path d="M144.501 89.198H135.581V93.6579H144.501V89.198Z" fill="white"/>
<path d="M140.041 93.6577H131.121V98.1176H140.041V93.6577Z" fill="white"/>
<path d="M135.581 98.1177H131.121V102.578H135.581V98.1177Z" fill="white"/>
<path d="M86.2987 40H84.5742V27.9044H93.2088V29.6348H86.2987V33.0899H92.3466V34.8204H86.2987V40ZM99.6937 40H95.3705V39.1377H94.5082V38.2754H93.6459V33.0899H94.5082V32.2276H95.3705V31.3653H99.6937V32.2276H100.556V33.0899H101.418V36.1138H95.3705V37.4131H96.2328V38.2754H98.8255V37.4131H101.418V38.2754H100.556V39.1377H99.6937V40ZM95.3705 34.8204H99.6937V33.9522H98.8255V33.0899H96.2328V33.9522H95.3705V34.8204ZM109.191 40H104.867V39.1377H104.005V38.2754H103.143V33.0899H104.005V32.2276H104.867V31.3653H109.191V32.2276H110.053V33.0899H110.915V36.1138H104.867V37.4131H105.73V38.2754H108.323V37.4131H110.915V38.2754H110.053V39.1377H109.191V40ZM104.867 34.8204H109.191V33.9522H108.323V33.0899H105.73V33.9522H104.867V34.8204ZM114.364 40H112.64V27.9044H114.364V40ZM122.137 40H117.814V39.1377H116.951V38.2754H116.089V37.4131H118.676V38.2754H121.7V36.5449H118.676V35.6827H116.951V34.8204H116.089V33.0899H116.951V32.2276H117.814V31.3653H122.137V32.2276H122.999V33.0899H123.861V33.9522H121.269V33.0899H118.245V34.8204H121.269V35.6827H122.999V36.5449H123.861V38.2754H122.999V39.1377H122.137V40ZM133.352 40H130.76V39.1377H129.897V32.6587H128.604V31.3653H129.897V28.7725H131.628V31.3653H133.352V32.6587H131.628V38.2754H133.352V40ZM136.382 40H134.658V27.9044H136.382V32.2276H137.245V31.3653H140.268V32.2276H141.137V33.0899H141.999V40H140.268V33.9522H139.406V33.0899H137.245V33.9522H136.382V40ZM149.777 40H145.454V39.1377H144.592V38.2754H143.729V33.0899H144.592V32.2276H145.454V31.3653H149.777V32.2276H150.64V33.0899H151.502V36.1138H145.454V37.4131H146.316V38.2754H148.909V37.4131H151.502V38.2754H150.64V39.1377H149.777V40ZM145.454 34.8204H149.777V33.9522H148.909V33.0899H146.316V33.9522H145.454V34.8204ZM84.1371 57H81.5443V54.4131H80.6821V50.9522H79.8198V48.3653H81.5443V50.9522H82.4066V54.4131H83.706V50.9522H84.5683V48.3653H86.2987V50.9522H87.161V54.4131H88.4545V50.9522H89.3227V48.3653H91.0472V50.9522H90.1849V54.4131H89.3227V57H86.7299V54.4131H85.8676V50.9522H84.9994V54.4131H84.1371V57ZM97.101 57H93.6459V56.1377H92.7836V55.2754H91.9213V53.5449H92.7836V52.6827H94.5082V51.8204H97.9692V50.9522H97.101V50.0899H94.5082V50.9522H91.9213V50.0899H92.7836V49.2276H93.6459V48.3653H97.9692V49.2276H98.8314V50.0899H99.6937V57H97.9692V56.1377H97.101V57ZM94.077 55.2754H97.101V54.4131H97.9692V52.6827H97.101V53.5449H94.077V55.2754ZM103.143 57H101.418V44.9044H103.143V57ZM106.592 57H104.867V44.9044H106.592V57ZM114.364 57H110.041V56.1377H109.179V55.2754H108.317V50.0899H109.179V49.2276H110.041V48.3653H114.364V49.2276H115.227V50.0899H116.089V53.1138H110.041V54.4131H110.903V55.2754H113.496V54.4131H116.089V55.2754H115.227V56.1377H114.364V57ZM110.041 51.8204H114.364V50.9522H113.496V50.0899H110.903V50.9522H110.041V51.8204ZM121.706 57H119.113V56.1377H118.251V49.6587H116.957V48.3653H118.251V45.7725H119.981V48.3653H121.706V49.6587H119.981V55.2754H121.706V57ZM128.185 47.066H126.46V45.3414H128.185V47.066ZM128.185 57H126.46V48.3653H128.185V57ZM135.957 57H131.634V56.1377H130.772V55.2754H129.909V54.4131H132.496V55.2754H135.52V53.5449H132.496V52.6827H130.772V51.8204H129.909V50.0899H130.772V49.2276H131.634V48.3653H135.957V49.2276H136.819V50.0899H137.682V50.9522H135.089V50.0899H132.065V51.8204H135.089V52.6827H136.819V53.5449H137.682V55.2754H136.819V56.1377H135.957V57ZM148.035 57H144.58V56.1377H143.718V55.2754H142.855V53.5449H143.718V52.6827H145.442V51.8204H148.903V50.9522H148.035V50.0899H145.442V50.9522H142.855V50.0899H143.718V49.2276H144.58V48.3653H148.903V49.2276H149.765V50.0899H150.628V57H148.903V56.1377H148.035V57ZM145.011 55.2754H148.035V54.4131H148.903V52.6827H148.035V53.5449H145.011V55.2754ZM156.244 57H153.652V56.1377H152.789V49.6587H151.496V48.3653H152.789V45.7725H154.52V48.3653H156.244V49.6587H154.52V55.2754H156.244V57ZM106.805 74H105.08V65.3653H106.805V66.2276H107.667V65.3653H109.829V67.0899H107.667V67.9522H106.805V74ZM112.852 64.066H111.128V62.3414H112.852V64.066ZM112.852 74H111.128V65.3653H112.852V74ZM120.625 74H116.302V73.1377H115.439V72.2754H114.577V71.4131H117.164V72.2754H120.188V70.5449H117.164V69.6827H115.439V68.8204H114.577V67.0899H115.439V66.2276H116.302V65.3653H120.625V66.2276H121.487V67.0899H122.349V67.9522H119.757V67.0899H116.733V68.8204H119.757V69.6827H121.487V70.5449H122.349V72.2754H121.487V73.1377H120.625V74ZM125.799 74H124.074V61.9044H125.799V68.8204H126.661V67.9522H127.529V67.0899H128.391V66.2276H129.254V65.3653H131.415V66.2276H130.553V67.0899H129.685V67.9522H128.822V68.8204H127.96V70.5449H128.822V71.4131H129.685V72.2754H130.553V73.1377H131.415V74H129.254V73.1377H128.391V72.2754H127.529V71.4131H126.661V70.5449H125.799V74Z" fill="black"/>
</g>
<defs>
<clipPath id="clip0_7_539">
<rect width="148.515" height="115.963" fill="white" transform="translate(0 68.2363)"/>
</clipPath>
<clipPath id="clip1_7_539">
<rect width="122" height="136" fill="white" transform="translate(67)"/>
</clipPath>
</defs>
</svg>
