<svg width="380" height="371" viewBox="0 0 380 371" fill="none" xmlns="http://www.w3.org/2000/svg">
<g clip-path="url(#clip0_28_8002)">
<path d="M139.896 193.08H93.2642V202.406H139.896V193.08Z" fill="#4BEA69"/>
<path d="M205.18 193.08H167.875V202.406H205.18V193.08Z" fill="#4BEA69"/>
<path d="M149.222 202.406H83.937V211.733H149.222V202.406Z" fill="#4BEA69"/>
<path d="M214.507 202.406H158.548V211.733H214.507V202.406Z" fill="#4BEA69"/>
<path d="M111.916 211.733H74.6104V221.059H111.916V211.733Z" fill="#4BEA69"/>
<path d="M130.57 211.733H111.917V221.059H130.57V211.733Z" fill="#068940"/>
<path d="M223.833 211.733H130.57V221.059H223.833V211.733Z" fill="#4BEA69"/>
<path d="M111.916 221.06H74.6104V230.386H111.916V221.06Z" fill="#4BEA69"/>
<path d="M130.57 221.06H111.917V230.386H130.57V221.06Z" fill="#068940"/>
<path d="M223.833 221.06H130.57V230.386H223.833V221.06Z" fill="#4BEA69"/>
<path d="M195.853 230.386H74.6104V239.712H195.853V230.386Z" fill="#4BEA69"/>
<path d="M214.507 230.386H195.854V239.712H214.507V230.386Z" fill="#068940"/>
<path d="M223.834 230.386H214.508V239.712H223.834V230.386Z" fill="#4BEA69"/>
<path d="M195.853 239.712H74.6104V249.039H195.853V239.712Z" fill="#4BEA69"/>
<path d="M214.507 239.712H195.854V249.039H214.507V239.712Z" fill="#068940"/>
<path d="M223.834 239.712H214.508V249.039H223.834V239.712Z" fill="#4BEA69"/>
<path d="M223.832 249.038H74.6104V258.365H223.832V249.038Z" fill="#4BEA69"/>
<path d="M223.832 258.365H74.6104V267.692H223.832V258.365Z" fill="#4BEA69"/>
<path d="M93.2631 267.692H74.6104V277.018H93.2631V267.692Z" fill="#068940"/>
<path d="M223.833 267.692H93.2642V277.018H223.833V267.692Z" fill="#4BEA69"/>
<path d="M74.6125 277.018H65.2861V286.344H74.6125V277.018Z" fill="#4BEA69"/>
<path d="M93.2631 277.018H74.6104V286.344H93.2631V277.018Z" fill="#068940"/>
<path d="M233.16 277.018H93.2642V286.344H233.16V277.018Z" fill="#4BEA69"/>
<path d="M233.161 286.344H65.2861V295.67H233.161V286.344Z" fill="#4BEA69"/>
<path d="M233.161 295.67H65.2861V304.997H233.161V295.67Z" fill="#4BEA69"/>
<path d="M233.161 304.997H65.2861V314.323H233.161V304.997Z" fill="#70E890"/>
<path d="M223.493 314.281H65.4136V323.82H223.493V314.281Z" fill="#70E890"/>
<path d="M233.161 314.323H214.508V323.65H233.161V314.323Z" fill="#70E890"/>
<path d="M223.832 323.65H74.6104V332.976H223.832V323.65Z" fill="#70E890"/>
<path d="M179.345 300.933H123.68V309.994H179.345V300.933Z" fill="#0B5027"/>
<path d="M182.867 243.152H166.791V263.247H182.867V243.152Z" fill="black"/>
</g>
<g clip-path="url(#clip1_28_8002)">
<path d="M299.341 35.8491H173.869V44.8114H299.341V35.8491Z" fill="white"/>
<path d="M317.264 44.8115H155.943V53.7738H317.264V44.8115Z" fill="white"/>
<path d="M326.227 53.7734H146.982V62.7357H326.227V53.7734Z" fill="white"/>
<path d="M326.227 62.7358H146.982V71.6981H326.227V62.7358Z" fill="white"/>
<path d="M335.189 71.6982H138.02V80.6605H335.189V71.6982Z" fill="white"/>
<path d="M335.189 80.6606H138.02V89.6229H335.189V80.6606Z" fill="white"/>
<path d="M335.189 89.6226H138.02V98.5848H335.189V89.6226Z" fill="white"/>
<path d="M335.189 98.585H138.02V107.547H335.189V98.585Z" fill="white"/>
<path d="M335.189 107.547H138.02V116.51H335.189V107.547Z" fill="white"/>
<path d="M335.189 116.51H138.02V125.472H335.189V116.51Z" fill="white"/>
<path d="M335.189 125.472H138.02V134.434H335.189V125.472Z" fill="white"/>
<path d="M326.227 134.434H146.982V143.396H326.227V134.434Z" fill="white"/>
<path d="M326.227 143.396H146.982V152.359H326.227V143.396Z" fill="white"/>
<path d="M317.264 152.358H155.943V161.321H317.264V152.358Z" fill="white"/>
<path d="M308.303 161.321H173.869V170.283H308.303V161.321Z" fill="white"/>
<path d="M299.34 170.283H272.454V179.245H299.34V170.283Z" fill="white"/>
<path d="M290.378 179.246H272.454V188.208H290.378V179.246Z" fill="white"/>
<path d="M281.416 188.208H263.491V197.17H281.416V188.208Z" fill="white"/>
<path d="M272.453 197.17H263.491V206.132H272.453V197.17Z" fill="white"/>
<path d="M173.419 81.2571H169.954V56.9506H187.305V60.428H173.419V67.371H185.573V70.8485H173.419V81.2571ZM200.337 81.2571H191.649V79.5243H189.917V77.7915H188.184V67.371H189.917V65.6383H191.649V63.9055H200.337V65.6383H202.07V67.371H203.803V73.4477H191.649V76.0587H193.382V77.7915H198.592V76.0587H203.803V77.7915H202.07V79.5243H200.337V81.2571ZM191.649 70.8485H200.337V69.1038H198.592V67.371H193.382V69.1038H191.649V70.8485ZM219.421 81.2571H210.734V79.5243H209.001V77.7915H207.268V67.371H209.001V65.6383H210.734V63.9055H219.421V65.6383H221.154V67.371H222.887V73.4477H210.734V76.0587H212.467V77.7915H217.677V76.0587H222.887V77.7915H221.154V79.5243H219.421V81.2571ZM210.734 70.8485H219.421V69.1038H217.677V67.371H212.467V69.1038H210.734V70.8485ZM229.818 81.2571H226.353V56.9506H229.818V81.2571ZM245.437 81.2571H236.749V79.5243H235.016V77.7915H233.284V76.0587H238.482V77.7915H244.559V74.3141H238.482V72.5813H235.016V70.8485H233.284V67.371H235.016V65.6383H236.749V63.9055H245.437V65.6383H247.17V67.371H248.903V69.1038H243.692V67.371H237.616V70.8485H243.692V72.5813H247.17V74.3141H248.903V77.7915H247.17V79.5243H245.437V81.2571ZM267.975 81.2571H262.765V79.5243H261.032V66.5047H258.433V63.9055H261.032V58.6952H264.509V63.9055H267.975V66.5047H264.509V77.7915H267.975V81.2571ZM274.064 81.2571H270.598V56.9506H274.064V65.6383H275.796V63.9055H281.873V65.6383H283.618V67.371H285.35V81.2571H281.873V69.1038H280.14V67.371H275.796V69.1038H274.064V81.2571ZM300.981 81.2571H292.293V79.5243H290.561V77.7915H288.828V67.371H290.561V65.6383H292.293V63.9055H300.981V65.6383H302.714V67.371H304.447V73.4477H292.293V76.0587H294.026V77.7915H299.236V76.0587H304.447V77.7915H302.714V79.5243H300.981V81.2571ZM292.293 70.8485H300.981V69.1038H299.236V67.371H294.026V69.1038H292.293V70.8485ZM169.076 116.257H163.865V111.059H162.133V104.104H160.4V98.9055H163.865V104.104H165.598V111.059H168.209V104.104H169.942V98.9055H173.419V104.104H175.152V111.059H177.751V104.104H179.496V98.9055H182.962V104.104H181.229V111.059H179.496V116.257H174.286V111.059H172.553V104.104H170.808V111.059H169.076V116.257ZM195.127 116.257H188.184V114.524H186.451V112.792H184.718V109.314H186.451V107.581H189.917V105.848H196.871V104.104H195.127V102.371H189.917V104.104H184.718V102.371H186.451V100.638H188.184V98.9055H196.871V100.638H198.604V102.371H200.337V116.257H196.871V114.524H195.127V116.257ZM189.05 112.792H195.127V111.059H196.871V107.581H195.127V109.314H189.05V112.792ZM207.268 116.257H203.803V91.9506H207.268V116.257ZM214.199 116.257H210.734V91.9506H214.199V116.257ZM229.818 116.257H221.13V114.524H219.398V112.792H217.665V102.371H219.398V100.638H221.13V98.9055H229.818V100.638H231.551V102.371H233.284V108.448H221.13V111.059H222.863V112.792H228.073V111.059H233.284V112.792H231.551V114.524H229.818V116.257ZM221.13 105.848H229.818V104.104H228.073V102.371H222.863V104.104H221.13V105.848ZM244.571 116.257H239.36V114.524H237.628V101.505H235.028V98.9055H237.628V93.6952H241.105V98.9055H244.571V101.505H241.105V112.792H244.571V116.257ZM257.59 96.2944H254.125V92.8288H257.59V96.2944ZM257.59 116.257H254.125V98.9055H257.59V116.257ZM273.209 116.257H264.521V114.524H262.789V112.792H261.056V111.059H266.254V112.792H272.331V109.314H266.254V107.581H262.789V105.848H261.056V102.371H262.789V100.638H264.521V98.9055H273.209V100.638H274.942V102.371H276.675V104.104H271.464V102.371H265.388V105.848H271.464V107.581H274.942V109.314H276.675V112.792H274.942V114.524H273.209V116.257ZM297.48 116.257H290.537V114.524H288.804V112.792H287.071V109.314H288.804V107.581H292.27V105.848H299.225V104.104H297.48V102.371H292.27V104.104H287.071V102.371H288.804V100.638H290.537V98.9055H299.225V100.638H300.957V102.371H302.69V116.257H299.225V114.524H297.48V116.257ZM291.403 112.792H297.48V111.059H299.225V107.581H297.48V109.314H291.403V112.792ZM313.977 116.257H308.767V114.524H307.034V101.505H304.435V98.9055H307.034V93.6952H310.511V98.9055H313.977V101.505H310.511V112.792H313.977V116.257ZM214.627 151.257H211.161V133.905H214.627V135.638H216.359V133.905H220.703V137.371H216.359V139.104H214.627V151.257ZM226.78 131.294H223.314V127.829H226.78V131.294ZM226.78 151.257H223.314V133.905H226.78V151.257ZM242.399 151.257H233.711V149.524H231.978V147.792H230.245V146.059H235.444V147.792H241.52V144.314H235.444V142.581H231.978V140.848H230.245V137.371H231.978V135.638H233.711V133.905H242.399V135.638H244.131V137.371H245.864V139.104H240.654V137.371H234.577V140.848H240.654V142.581H244.131V144.314H245.864V147.792H244.131V149.524H242.399V151.257ZM252.795 151.257H249.33V126.951H252.795V140.848H254.528V139.104H256.273V137.371H258.006V135.638H259.738V133.905H264.082V135.638H262.349V137.371H260.605V139.104H258.872V140.848H257.139V144.314H258.872V146.059H260.605V147.792H262.349V149.524H264.082V151.257H259.738V149.524H258.006V147.792H256.273V146.059H254.528V144.314H252.795V151.257Z" fill="black"/>
<path d="M130.619 243.152H112.533V263.248H130.619V243.152Z" fill="black"/>
</g>
<defs>
<clipPath id="clip0_28_8002">
<rect width="298.444" height="233.031" fill="white" transform="translate(0 137.123)"/>
</clipPath>
<clipPath id="clip1_28_8002">
<rect width="286.793" height="286.793" fill="white" transform="translate(93.2075)"/>
</clipPath>
</defs>
</svg>
